<mxfile host="Electron" modified="2023-07-06T10:44:23.274Z" agent="Mozilla/5.0 (Macintosh; Intel Mac OS X 10_15_7) AppleWebKit/537.36 (KHTML, like Gecko) draw.io/21.6.1 Chrome/112.0.5615.204 Electron/24.6.1 Safari/537.36" etag="fzR9BvmI2-OCp8o_uBlf" version="21.6.1" type="device">
  <diagram name="Page-1" id="a7ythYYRQJqlPy4ne2DH">
    <mxGraphModel dx="2190" dy="1039" grid="1" gridSize="10" guides="1" tooltips="1" connect="1" arrows="1" fold="1" page="1" pageScale="1" pageWidth="827" pageHeight="1169" math="0" shadow="0">
      <root>
        <mxCell id="0" />
        <mxCell id="1" parent="0" />
        <mxCell id="lmzBe89Hnr_I3sa1ihvS-1" value="Docter" style="rounded=1;arcSize=10;whiteSpace=wrap;html=1;align=center;fillColor=#a20025;fontColor=#ffffff;strokeColor=#6F0000;" vertex="1" parent="1">
          <mxGeometry x="110" y="180" width="100" height="40" as="geometry" />
        </mxCell>
        <mxCell id="lmzBe89Hnr_I3sa1ihvS-3" value="" style="endArrow=none;html=1;rounded=0;exitX=1;exitY=0.75;exitDx=0;exitDy=0;" edge="1" parent="1" source="lmzBe89Hnr_I3sa1ihvS-1">
          <mxGeometry width="50" height="50" relative="1" as="geometry">
            <mxPoint x="220" y="260" as="sourcePoint" />
            <mxPoint x="270" y="210" as="targetPoint" />
          </mxGeometry>
        </mxCell>
        <mxCell id="lmzBe89Hnr_I3sa1ihvS-4" value="doctor_ID" style="ellipse;whiteSpace=wrap;html=1;align=center;fillColor=#008a00;fontColor=#ffffff;strokeColor=#005700;" vertex="1" parent="1">
          <mxGeometry x="260" y="180" width="100" height="40" as="geometry" />
        </mxCell>
        <mxCell id="lmzBe89Hnr_I3sa1ihvS-5" value="" style="endArrow=none;html=1;rounded=0;exitX=1;exitY=0.5;exitDx=0;exitDy=0;" edge="1" parent="1" source="lmzBe89Hnr_I3sa1ihvS-1">
          <mxGeometry width="50" height="50" relative="1" as="geometry">
            <mxPoint x="210" y="180" as="sourcePoint" />
            <mxPoint x="270" y="150" as="targetPoint" />
          </mxGeometry>
        </mxCell>
        <mxCell id="lmzBe89Hnr_I3sa1ihvS-6" value="Personal_details" style="ellipse;whiteSpace=wrap;html=1;align=center;fillColor=#008a00;strokeColor=#005700;fontColor=#ffffff;" vertex="1" parent="1">
          <mxGeometry x="260" y="130" width="100" height="40" as="geometry" />
        </mxCell>
        <mxCell id="lmzBe89Hnr_I3sa1ihvS-9" value="Patient&amp;nbsp;" style="rounded=1;arcSize=10;whiteSpace=wrap;html=1;align=center;fillColor=#a20025;fontColor=#ffffff;strokeColor=#6F0000;" vertex="1" parent="1">
          <mxGeometry x="110" y="350" width="100" height="40" as="geometry" />
        </mxCell>
        <mxCell id="lmzBe89Hnr_I3sa1ihvS-10" value="" style="endArrow=none;html=1;rounded=0;" edge="1" parent="1">
          <mxGeometry width="50" height="50" relative="1" as="geometry">
            <mxPoint x="210" y="360" as="sourcePoint" />
            <mxPoint x="270" y="320" as="targetPoint" />
          </mxGeometry>
        </mxCell>
        <mxCell id="lmzBe89Hnr_I3sa1ihvS-11" value="" style="endArrow=none;html=1;rounded=0;" edge="1" parent="1">
          <mxGeometry width="50" height="50" relative="1" as="geometry">
            <mxPoint x="210" y="380" as="sourcePoint" />
            <mxPoint x="280" y="360" as="targetPoint" />
          </mxGeometry>
        </mxCell>
        <mxCell id="lmzBe89Hnr_I3sa1ihvS-12" value="Patient_ID" style="ellipse;whiteSpace=wrap;html=1;align=center;fillColor=#008a00;fontColor=#ffffff;strokeColor=#005700;" vertex="1" parent="1">
          <mxGeometry x="270" y="300" width="100" height="40" as="geometry" />
        </mxCell>
        <mxCell id="lmzBe89Hnr_I3sa1ihvS-13" value="Personal_details" style="ellipse;whiteSpace=wrap;html=1;align=center;fillColor=#008a00;fontColor=#ffffff;strokeColor=#005700;" vertex="1" parent="1">
          <mxGeometry x="270" y="343" width="100" height="40" as="geometry" />
        </mxCell>
        <mxCell id="lmzBe89Hnr_I3sa1ihvS-17" value="Appointment" style="rounded=1;arcSize=10;whiteSpace=wrap;html=1;align=center;fillColor=#a20025;fontColor=#ffffff;strokeColor=#6F0000;" vertex="1" parent="1">
          <mxGeometry x="110" y="520" width="100" height="40" as="geometry" />
        </mxCell>
        <mxCell id="lmzBe89Hnr_I3sa1ihvS-18" value="" style="endArrow=none;html=1;rounded=0;entryX=0.5;entryY=1;entryDx=0;entryDy=0;" edge="1" parent="1" target="lmzBe89Hnr_I3sa1ihvS-31">
          <mxGeometry width="50" height="50" relative="1" as="geometry">
            <mxPoint x="200" y="520" as="sourcePoint" />
            <mxPoint x="300" y="440" as="targetPoint" />
            <Array as="points" />
          </mxGeometry>
        </mxCell>
        <mxCell id="lmzBe89Hnr_I3sa1ihvS-19" value="" style="endArrow=none;html=1;rounded=0;exitX=0.88;exitY=1.05;exitDx=0;exitDy=0;exitPerimeter=0;entryX=0;entryY=0.25;entryDx=0;entryDy=0;entryPerimeter=0;" edge="1" parent="1" source="lmzBe89Hnr_I3sa1ihvS-17">
          <mxGeometry width="50" height="50" relative="1" as="geometry">
            <mxPoint x="210" y="570" as="sourcePoint" />
            <mxPoint x="300" y="600" as="targetPoint" />
          </mxGeometry>
        </mxCell>
        <mxCell id="lmzBe89Hnr_I3sa1ihvS-28" value="" style="endArrow=none;html=1;rounded=0;entryX=0;entryY=0.5;entryDx=0;entryDy=0;" edge="1" parent="1">
          <mxGeometry width="50" height="50" relative="1" as="geometry">
            <mxPoint x="210" y="550" as="sourcePoint" />
            <mxPoint x="300" y="570" as="targetPoint" />
          </mxGeometry>
        </mxCell>
        <mxCell id="lmzBe89Hnr_I3sa1ihvS-29" value="Time_Date&amp;nbsp;" style="ellipse;whiteSpace=wrap;html=1;align=center;fillColor=#008a00;fontColor=#ffffff;strokeColor=#005700;" vertex="1" parent="1">
          <mxGeometry x="301" y="585" width="100" height="40" as="geometry" />
        </mxCell>
        <mxCell id="lmzBe89Hnr_I3sa1ihvS-30" value="Loction&amp;nbsp;" style="ellipse;whiteSpace=wrap;html=1;align=center;fillColor=#008a00;fontColor=#ffffff;strokeColor=#005700;" vertex="1" parent="1">
          <mxGeometry x="300" y="545" width="100" height="40" as="geometry" />
        </mxCell>
        <mxCell id="lmzBe89Hnr_I3sa1ihvS-31" value="&lt;font style=&quot;font-size: 10px;&quot;&gt;Appointment_number&lt;/font&gt;" style="ellipse;whiteSpace=wrap;html=1;align=center;fillColor=#008a00;fontColor=#ffffff;strokeColor=#005700;" vertex="1" parent="1">
          <mxGeometry x="160" y="420" width="100" height="45" as="geometry" />
        </mxCell>
        <mxCell id="lmzBe89Hnr_I3sa1ihvS-33" value="Contact_Number" style="ellipse;whiteSpace=wrap;html=1;align=center;fillColor=#008a00;fontColor=#ffffff;strokeColor=#005700;" vertex="1" parent="1">
          <mxGeometry x="301" y="625" width="100" height="40" as="geometry" />
        </mxCell>
        <mxCell id="lmzBe89Hnr_I3sa1ihvS-37" value="" style="endArrow=none;html=1;rounded=0;" edge="1" parent="1" source="lmzBe89Hnr_I3sa1ihvS-17">
          <mxGeometry width="50" height="50" relative="1" as="geometry">
            <mxPoint x="250" y="700" as="sourcePoint" />
            <mxPoint x="310" y="640" as="targetPoint" />
            <Array as="points">
              <mxPoint x="290" y="630" />
            </Array>
          </mxGeometry>
        </mxCell>
        <mxCell id="lmzBe89Hnr_I3sa1ihvS-39" value="Appointment_number" style="ellipse;whiteSpace=wrap;html=1;align=center;fillColor=#008a00;fontColor=#ffffff;strokeColor=#005700;" vertex="1" parent="1">
          <mxGeometry x="260" y="730" width="100" height="40" as="geometry" />
        </mxCell>
        <mxCell id="lmzBe89Hnr_I3sa1ihvS-40" value="Payment_ID" style="ellipse;whiteSpace=wrap;html=1;align=center;fillColor=#008a00;fontColor=#ffffff;strokeColor=#005700;" vertex="1" parent="1">
          <mxGeometry x="260" y="770" width="100" height="40" as="geometry" />
        </mxCell>
        <mxCell id="lmzBe89Hnr_I3sa1ihvS-41" value="Modeofpaye" style="ellipse;whiteSpace=wrap;html=1;align=center;fillColor=#008a00;fontColor=#ffffff;strokeColor=#005700;" vertex="1" parent="1">
          <mxGeometry x="260" y="820" width="100" height="40" as="geometry" />
        </mxCell>
        <mxCell id="lmzBe89Hnr_I3sa1ihvS-42" value="" style="endArrow=none;html=1;rounded=0;" edge="1" parent="1" target="lmzBe89Hnr_I3sa1ihvS-39">
          <mxGeometry width="50" height="50" relative="1" as="geometry">
            <mxPoint x="210" y="750" as="sourcePoint" />
            <mxPoint x="260" y="700" as="targetPoint" />
          </mxGeometry>
        </mxCell>
        <mxCell id="lmzBe89Hnr_I3sa1ihvS-43" value="" style="endArrow=none;html=1;rounded=0;exitX=1;exitY=0.5;exitDx=0;exitDy=0;" edge="1" parent="1">
          <mxGeometry width="50" height="50" relative="1" as="geometry">
            <mxPoint x="210" y="749.9999999999998" as="sourcePoint" />
            <mxPoint x="270" y="790" as="targetPoint" />
          </mxGeometry>
        </mxCell>
        <mxCell id="lmzBe89Hnr_I3sa1ihvS-44" value="" style="endArrow=none;html=1;rounded=0;exitX=1;exitY=1;exitDx=0;exitDy=0;" edge="1" parent="1">
          <mxGeometry width="50" height="50" relative="1" as="geometry">
            <mxPoint x="210" y="769.9999999999998" as="sourcePoint" />
            <mxPoint x="260" y="840" as="targetPoint" />
          </mxGeometry>
        </mxCell>
        <mxCell id="lmzBe89Hnr_I3sa1ihvS-45" value="Dianosis" style="rounded=1;arcSize=10;whiteSpace=wrap;html=1;align=center;fillColor=#a20025;fontColor=#ffffff;strokeColor=#6F0000;" vertex="1" parent="1">
          <mxGeometry x="120" y="930" width="100" height="40" as="geometry" />
        </mxCell>
        <mxCell id="lmzBe89Hnr_I3sa1ihvS-46" value="Admited patient" style="rounded=1;arcSize=10;whiteSpace=wrap;html=1;align=center;fillColor=#a20025;fontColor=#ffffff;strokeColor=#6F0000;" vertex="1" parent="1">
          <mxGeometry x="120" y="1150" width="100" height="40" as="geometry" />
        </mxCell>
        <mxCell id="lmzBe89Hnr_I3sa1ihvS-47" value="" style="endArrow=none;html=1;rounded=0;" edge="1" parent="1">
          <mxGeometry width="50" height="50" relative="1" as="geometry">
            <mxPoint x="220" y="940" as="sourcePoint" />
            <mxPoint x="300" y="930" as="targetPoint" />
          </mxGeometry>
        </mxCell>
        <mxCell id="lmzBe89Hnr_I3sa1ihvS-48" value="Nurse" style="rounded=1;arcSize=10;whiteSpace=wrap;html=1;align=center;fillColor=#a20025;fontColor=#ffffff;strokeColor=#6F0000;" vertex="1" parent="1">
          <mxGeometry x="120" y="1330" width="100" height="40" as="geometry" />
        </mxCell>
        <mxCell id="lmzBe89Hnr_I3sa1ihvS-49" value="Dianosis_ID" style="ellipse;whiteSpace=wrap;html=1;align=center;fillColor=#008a00;fontColor=#ffffff;strokeColor=#005700;" vertex="1" parent="1">
          <mxGeometry x="300" y="910" width="100" height="40" as="geometry" />
        </mxCell>
        <mxCell id="lmzBe89Hnr_I3sa1ihvS-50" value="" style="endArrow=none;html=1;rounded=0;" edge="1" parent="1">
          <mxGeometry width="50" height="50" relative="1" as="geometry">
            <mxPoint x="220" y="960" as="sourcePoint" />
            <mxPoint x="300" y="970" as="targetPoint" />
          </mxGeometry>
        </mxCell>
        <mxCell id="lmzBe89Hnr_I3sa1ihvS-51" value="&lt;span style=&quot;color: rgb(0, 0, 0); font-family: Helvetica; font-style: normal; font-variant-ligatures: normal; font-variant-caps: normal; font-weight: 400; letter-spacing: normal; orphans: 2; text-align: center; text-indent: 0px; text-transform: none; widows: 2; word-spacing: 0px; -webkit-text-stroke-width: 0px; background-color: rgb(251, 251, 251); text-decoration-thickness: initial; text-decoration-style: initial; text-decoration-color: initial; float: none; display: inline !important;&quot;&gt;&lt;font style=&quot;font-size: 10px;&quot;&gt;Appointment_number&lt;/font&gt;&lt;/span&gt;" style="ellipse;whiteSpace=wrap;html=1;align=center;fillColor=#008a00;fontColor=#ffffff;strokeColor=#005700;" vertex="1" parent="1">
          <mxGeometry x="301" y="950" width="100" height="40" as="geometry" />
        </mxCell>
        <mxCell id="lmzBe89Hnr_I3sa1ihvS-52" value="" style="endArrow=none;html=1;rounded=0;" edge="1" parent="1">
          <mxGeometry width="50" height="50" relative="1" as="geometry">
            <mxPoint x="300" y="1020" as="sourcePoint" />
            <mxPoint x="220" y="970" as="targetPoint" />
          </mxGeometry>
        </mxCell>
        <mxCell id="lmzBe89Hnr_I3sa1ihvS-53" value="Dianosis_&lt;br&gt;Details" style="ellipse;whiteSpace=wrap;html=1;align=center;fillColor=#008a00;fontColor=#ffffff;strokeColor=#005700;" vertex="1" parent="1">
          <mxGeometry x="301" y="1000" width="100" height="40" as="geometry" />
        </mxCell>
        <mxCell id="lmzBe89Hnr_I3sa1ihvS-54" value="" style="endArrow=none;html=1;rounded=0;" edge="1" parent="1">
          <mxGeometry width="50" height="50" relative="1" as="geometry">
            <mxPoint x="220" y="1160" as="sourcePoint" />
            <mxPoint x="300" y="1130" as="targetPoint" />
          </mxGeometry>
        </mxCell>
        <mxCell id="lmzBe89Hnr_I3sa1ihvS-55" value="" style="endArrow=none;html=1;rounded=0;" edge="1" parent="1">
          <mxGeometry width="50" height="50" relative="1" as="geometry">
            <mxPoint x="220" y="1180" as="sourcePoint" />
            <mxPoint x="310" y="1170" as="targetPoint" />
          </mxGeometry>
        </mxCell>
        <mxCell id="lmzBe89Hnr_I3sa1ihvS-56" value="" style="endArrow=none;html=1;rounded=0;" edge="1" parent="1">
          <mxGeometry width="50" height="50" relative="1" as="geometry">
            <mxPoint x="290" y="1220" as="sourcePoint" />
            <mxPoint x="220" y="1190" as="targetPoint" />
          </mxGeometry>
        </mxCell>
        <mxCell id="lmzBe89Hnr_I3sa1ihvS-57" value="Patient_ID" style="ellipse;whiteSpace=wrap;html=1;align=center;fillColor=#008a00;fontColor=#ffffff;strokeColor=#005700;" vertex="1" parent="1">
          <mxGeometry x="300" y="1110" width="100" height="40" as="geometry" />
        </mxCell>
        <mxCell id="lmzBe89Hnr_I3sa1ihvS-58" value="Ward" style="ellipse;whiteSpace=wrap;html=1;align=center;fillColor=#008a00;fontColor=#ffffff;strokeColor=#005700;" vertex="1" parent="1">
          <mxGeometry x="310" y="1150" width="100" height="40" as="geometry" />
        </mxCell>
        <mxCell id="lmzBe89Hnr_I3sa1ihvS-59" value="Room_number" style="ellipse;whiteSpace=wrap;html=1;align=center;fillColor=#008a00;fontColor=#ffffff;strokeColor=#005700;" vertex="1" parent="1">
          <mxGeometry x="290" y="1200" width="100" height="40" as="geometry" />
        </mxCell>
        <mxCell id="lmzBe89Hnr_I3sa1ihvS-60" value="" style="endArrow=none;html=1;rounded=0;" edge="1" parent="1">
          <mxGeometry width="50" height="50" relative="1" as="geometry">
            <mxPoint x="310" y="1280" as="sourcePoint" />
            <mxPoint x="210" y="1190" as="targetPoint" />
          </mxGeometry>
        </mxCell>
        <mxCell id="lmzBe89Hnr_I3sa1ihvS-61" value="Payment" style="shape=ext;margin=3;double=1;whiteSpace=wrap;html=1;align=center;fillColor=#a20025;fontColor=#ffffff;strokeColor=#6F0000;" vertex="1" parent="1">
          <mxGeometry x="120" y="740" width="100" height="40" as="geometry" />
        </mxCell>
        <mxCell id="lmzBe89Hnr_I3sa1ihvS-63" value="narse_ID" style="ellipse;whiteSpace=wrap;html=1;align=center;fillColor=#008a00;fontColor=#ffffff;strokeColor=#005700;" vertex="1" parent="1">
          <mxGeometry x="310" y="1260" width="100" height="40" as="geometry" />
        </mxCell>
        <mxCell id="lmzBe89Hnr_I3sa1ihvS-64" value="" style="endArrow=none;html=1;rounded=0;" edge="1" parent="1">
          <mxGeometry width="50" height="50" relative="1" as="geometry">
            <mxPoint x="290" y="1410" as="sourcePoint" />
            <mxPoint x="220" y="1370" as="targetPoint" />
          </mxGeometry>
        </mxCell>
        <mxCell id="lmzBe89Hnr_I3sa1ihvS-66" value="narse_ID" style="ellipse;whiteSpace=wrap;html=1;align=center;fillColor=#008a00;fontColor=#ffffff;strokeColor=#005700;" vertex="1" parent="1">
          <mxGeometry x="280" y="1390" width="100" height="50" as="geometry" />
        </mxCell>
        <mxCell id="lmzBe89Hnr_I3sa1ihvS-67" value="" style="endArrow=none;html=1;rounded=0;" edge="1" parent="1" target="lmzBe89Hnr_I3sa1ihvS-69">
          <mxGeometry width="50" height="50" relative="1" as="geometry">
            <mxPoint x="220" y="1360" as="sourcePoint" />
            <mxPoint x="230" y="1360" as="targetPoint" />
          </mxGeometry>
        </mxCell>
        <mxCell id="lmzBe89Hnr_I3sa1ihvS-69" value="name" style="ellipse;whiteSpace=wrap;html=1;align=center;fillColor=#008a00;fontColor=#ffffff;strokeColor=#005700;" vertex="1" parent="1">
          <mxGeometry x="280" y="1350" width="100" height="40" as="geometry" />
        </mxCell>
        <mxCell id="lmzBe89Hnr_I3sa1ihvS-70" value="persanel_details" style="ellipse;whiteSpace=wrap;html=1;align=center;fillColor=#008a00;fontColor=#ffffff;strokeColor=#005700;" vertex="1" parent="1">
          <mxGeometry x="280" y="1310" width="100" height="40" as="geometry" />
        </mxCell>
        <mxCell id="lmzBe89Hnr_I3sa1ihvS-74" value="Relationship" style="shape=rhombus;perimeter=rhombusPerimeter;whiteSpace=wrap;html=1;align=center;fillColor=#1ba1e2;fontColor=#ffffff;strokeColor=#006EAF;" vertex="1" parent="1">
          <mxGeometry x="-90" y="280" width="120" height="60" as="geometry" />
        </mxCell>
        <mxCell id="lmzBe89Hnr_I3sa1ihvS-76" value="" style="endArrow=none;html=1;rounded=0;entryX=0;entryY=0.5;entryDx=0;entryDy=0;" edge="1" parent="1" target="lmzBe89Hnr_I3sa1ihvS-1">
          <mxGeometry width="50" height="50" relative="1" as="geometry">
            <mxPoint x="-30" y="280" as="sourcePoint" />
            <mxPoint x="20" y="230" as="targetPoint" />
          </mxGeometry>
        </mxCell>
        <mxCell id="lmzBe89Hnr_I3sa1ihvS-94" value="1" style="edgeLabel;html=1;align=center;verticalAlign=middle;resizable=0;points=[];" vertex="1" connectable="0" parent="lmzBe89Hnr_I3sa1ihvS-76">
          <mxGeometry x="0.0913" relative="1" as="geometry">
            <mxPoint as="offset" />
          </mxGeometry>
        </mxCell>
        <mxCell id="lmzBe89Hnr_I3sa1ihvS-77" value="" style="endArrow=none;html=1;rounded=0;exitX=0;exitY=0.25;exitDx=0;exitDy=0;" edge="1" parent="1" source="lmzBe89Hnr_I3sa1ihvS-9">
          <mxGeometry width="50" height="50" relative="1" as="geometry">
            <mxPoint x="-20" y="360" as="sourcePoint" />
            <mxPoint x="30" y="310" as="targetPoint" />
          </mxGeometry>
        </mxCell>
        <mxCell id="lmzBe89Hnr_I3sa1ihvS-95" value="M" style="edgeLabel;html=1;align=center;verticalAlign=middle;resizable=0;points=[];" vertex="1" connectable="0" parent="lmzBe89Hnr_I3sa1ihvS-77">
          <mxGeometry x="0.1909" y="1" relative="1" as="geometry">
            <mxPoint y="1" as="offset" />
          </mxGeometry>
        </mxCell>
        <mxCell id="lmzBe89Hnr_I3sa1ihvS-78" value="Relationship" style="shape=rhombus;perimeter=rhombusPerimeter;whiteSpace=wrap;html=1;align=center;fillColor=#1ba1e2;fontColor=#ffffff;strokeColor=#006EAF;" vertex="1" parent="1">
          <mxGeometry x="-100" y="440" width="120" height="60" as="geometry" />
        </mxCell>
        <mxCell id="lmzBe89Hnr_I3sa1ihvS-79" value="" style="endArrow=none;html=1;rounded=0;exitX=1;exitY=0.5;exitDx=0;exitDy=0;" edge="1" parent="1" source="lmzBe89Hnr_I3sa1ihvS-78">
          <mxGeometry width="50" height="50" relative="1" as="geometry">
            <mxPoint x="60" y="440" as="sourcePoint" />
            <mxPoint x="110" y="390" as="targetPoint" />
          </mxGeometry>
        </mxCell>
        <mxCell id="lmzBe89Hnr_I3sa1ihvS-96" value="1" style="edgeLabel;html=1;align=center;verticalAlign=middle;resizable=0;points=[];" vertex="1" connectable="0" parent="lmzBe89Hnr_I3sa1ihvS-79">
          <mxGeometry x="0.0826" y="-2" relative="1" as="geometry">
            <mxPoint y="-1" as="offset" />
          </mxGeometry>
        </mxCell>
        <mxCell id="lmzBe89Hnr_I3sa1ihvS-80" value="" style="endArrow=none;html=1;rounded=0;exitX=1;exitY=0.5;exitDx=0;exitDy=0;" edge="1" parent="1" source="lmzBe89Hnr_I3sa1ihvS-78">
          <mxGeometry width="50" height="50" relative="1" as="geometry">
            <mxPoint x="60" y="590" as="sourcePoint" />
            <mxPoint x="110" y="540" as="targetPoint" />
          </mxGeometry>
        </mxCell>
        <mxCell id="lmzBe89Hnr_I3sa1ihvS-97" value="M" style="edgeLabel;html=1;align=center;verticalAlign=middle;resizable=0;points=[];" vertex="1" connectable="0" parent="lmzBe89Hnr_I3sa1ihvS-80">
          <mxGeometry x="0.1166" y="-5" relative="1" as="geometry">
            <mxPoint as="offset" />
          </mxGeometry>
        </mxCell>
        <mxCell id="lmzBe89Hnr_I3sa1ihvS-81" value="Relationship" style="shape=rhombus;perimeter=rhombusPerimeter;whiteSpace=wrap;html=1;align=center;fillColor=#1ba1e2;fontColor=#ffffff;strokeColor=#006EAF;" vertex="1" parent="1">
          <mxGeometry x="-90" y="630" width="120" height="60" as="geometry" />
        </mxCell>
        <mxCell id="lmzBe89Hnr_I3sa1ihvS-82" value="" style="endArrow=none;html=1;rounded=0;exitX=1;exitY=0.5;exitDx=0;exitDy=0;" edge="1" parent="1" source="lmzBe89Hnr_I3sa1ihvS-81">
          <mxGeometry width="50" height="50" relative="1" as="geometry">
            <mxPoint x="60" y="610" as="sourcePoint" />
            <mxPoint x="110" y="560" as="targetPoint" />
          </mxGeometry>
        </mxCell>
        <mxCell id="lmzBe89Hnr_I3sa1ihvS-98" value="1" style="edgeLabel;html=1;align=center;verticalAlign=middle;resizable=0;points=[];" vertex="1" connectable="0" parent="lmzBe89Hnr_I3sa1ihvS-82">
          <mxGeometry x="0.1611" y="-2" relative="1" as="geometry">
            <mxPoint as="offset" />
          </mxGeometry>
        </mxCell>
        <mxCell id="lmzBe89Hnr_I3sa1ihvS-83" value="" style="endArrow=none;html=1;rounded=0;" edge="1" parent="1">
          <mxGeometry width="50" height="50" relative="1" as="geometry">
            <mxPoint x="30" y="660" as="sourcePoint" />
            <mxPoint x="120" y="760" as="targetPoint" />
          </mxGeometry>
        </mxCell>
        <mxCell id="lmzBe89Hnr_I3sa1ihvS-99" value="1" style="edgeLabel;html=1;align=center;verticalAlign=middle;resizable=0;points=[];" vertex="1" connectable="0" parent="lmzBe89Hnr_I3sa1ihvS-83">
          <mxGeometry x="-0.0638" relative="1" as="geometry">
            <mxPoint as="offset" />
          </mxGeometry>
        </mxCell>
        <mxCell id="lmzBe89Hnr_I3sa1ihvS-84" value="Relationship" style="shape=rhombus;perimeter=rhombusPerimeter;whiteSpace=wrap;html=1;align=center;fillColor=#1ba1e2;fontColor=#ffffff;strokeColor=#006EAF;" vertex="1" parent="1">
          <mxGeometry x="-90" y="850" width="120" height="60" as="geometry" />
        </mxCell>
        <mxCell id="lmzBe89Hnr_I3sa1ihvS-85" value="" style="endArrow=none;html=1;rounded=0;" edge="1" parent="1">
          <mxGeometry relative="1" as="geometry">
            <mxPoint x="-180" y="550" as="sourcePoint" />
            <mxPoint x="110" y="550" as="targetPoint" />
          </mxGeometry>
        </mxCell>
        <mxCell id="lmzBe89Hnr_I3sa1ihvS-86" value="" style="endArrow=none;html=1;rounded=0;" edge="1" parent="1">
          <mxGeometry width="50" height="50" relative="1" as="geometry">
            <mxPoint x="-180" y="880" as="sourcePoint" />
            <mxPoint x="-180" y="550" as="targetPoint" />
          </mxGeometry>
        </mxCell>
        <mxCell id="lmzBe89Hnr_I3sa1ihvS-87" value="" style="line;strokeWidth=1;rotatable=0;dashed=0;labelPosition=right;align=left;verticalAlign=middle;spacingTop=0;spacingLeft=6;points=[];portConstraint=eastwest;" vertex="1" parent="1">
          <mxGeometry x="-180" y="875" width="90" height="10" as="geometry" />
        </mxCell>
        <mxCell id="lmzBe89Hnr_I3sa1ihvS-88" value="" style="endArrow=none;html=1;rounded=0;entryX=0;entryY=0.5;entryDx=0;entryDy=0;" edge="1" parent="1" target="lmzBe89Hnr_I3sa1ihvS-45">
          <mxGeometry width="50" height="50" relative="1" as="geometry">
            <mxPoint x="30" y="880" as="sourcePoint" />
            <mxPoint x="110" y="940" as="targetPoint" />
          </mxGeometry>
        </mxCell>
        <mxCell id="lmzBe89Hnr_I3sa1ihvS-89" value="Relationship" style="shape=rhombus;perimeter=rhombusPerimeter;whiteSpace=wrap;html=1;align=center;fillColor=#1ba1e2;fontColor=#ffffff;strokeColor=#006EAF;" vertex="1" parent="1">
          <mxGeometry x="-100" y="1240" width="120" height="60" as="geometry" />
        </mxCell>
        <mxCell id="lmzBe89Hnr_I3sa1ihvS-90" value="" style="endArrow=none;html=1;rounded=0;entryX=0;entryY=0.5;entryDx=0;entryDy=0;" edge="1" parent="1" target="lmzBe89Hnr_I3sa1ihvS-46">
          <mxGeometry width="50" height="50" relative="1" as="geometry">
            <mxPoint x="20" y="1270" as="sourcePoint" />
            <mxPoint x="70" y="1220" as="targetPoint" />
          </mxGeometry>
        </mxCell>
        <mxCell id="lmzBe89Hnr_I3sa1ihvS-91" value="" style="endArrow=none;html=1;rounded=0;" edge="1" parent="1" source="lmzBe89Hnr_I3sa1ihvS-89">
          <mxGeometry width="50" height="50" relative="1" as="geometry">
            <mxPoint x="-30" y="1320" as="sourcePoint" />
            <mxPoint x="20" y="1270" as="targetPoint" />
          </mxGeometry>
        </mxCell>
        <mxCell id="lmzBe89Hnr_I3sa1ihvS-93" value="" style="endArrow=none;html=1;rounded=0;exitX=1;exitY=0.5;exitDx=0;exitDy=0;" edge="1" parent="1" source="lmzBe89Hnr_I3sa1ihvS-89">
          <mxGeometry width="50" height="50" relative="1" as="geometry">
            <mxPoint x="70" y="1400" as="sourcePoint" />
            <mxPoint x="120" y="1350" as="targetPoint" />
          </mxGeometry>
        </mxCell>
        <mxCell id="lmzBe89Hnr_I3sa1ihvS-100" value="1" style="text;html=1;align=center;verticalAlign=middle;resizable=0;points=[];autosize=1;strokeColor=none;fillColor=none;" vertex="1" parent="1">
          <mxGeometry x="65" y="917" width="30" height="30" as="geometry" />
        </mxCell>
        <mxCell id="lmzBe89Hnr_I3sa1ihvS-101" value="1" style="text;html=1;align=center;verticalAlign=middle;resizable=0;points=[];autosize=1;strokeColor=none;fillColor=none;" vertex="1" parent="1">
          <mxGeometry x="-135" y="865" width="30" height="30" as="geometry" />
        </mxCell>
        <mxCell id="lmzBe89Hnr_I3sa1ihvS-102" value="1" style="text;html=1;align=center;verticalAlign=middle;resizable=0;points=[];autosize=1;strokeColor=none;fillColor=none;" vertex="1" parent="1">
          <mxGeometry x="45" y="1198" width="30" height="30" as="geometry" />
        </mxCell>
        <mxCell id="lmzBe89Hnr_I3sa1ihvS-103" value="1" style="text;html=1;align=center;verticalAlign=middle;resizable=0;points=[];autosize=1;strokeColor=none;fillColor=none;" vertex="1" parent="1">
          <mxGeometry x="55" y="1308" width="30" height="30" as="geometry" />
        </mxCell>
        <mxCell id="lmzBe89Hnr_I3sa1ihvS-104" value="Relationship" style="shape=rhombus;perimeter=rhombusPerimeter;whiteSpace=wrap;html=1;align=center;fillColor=#1ba1e2;fontColor=#ffffff;strokeColor=#006EAF;" vertex="1" parent="1">
          <mxGeometry x="400" y="250" width="120" height="60" as="geometry" />
        </mxCell>
        <mxCell id="lmzBe89Hnr_I3sa1ihvS-105" value="" style="endArrow=none;html=1;rounded=0;entryX=1;entryY=1;entryDx=0;entryDy=0;" edge="1" parent="1" target="lmzBe89Hnr_I3sa1ihvS-1">
          <mxGeometry width="50" height="50" relative="1" as="geometry">
            <mxPoint x="400" y="280" as="sourcePoint" />
            <mxPoint x="460" y="280" as="targetPoint" />
          </mxGeometry>
        </mxCell>
        <mxCell id="lmzBe89Hnr_I3sa1ihvS-108" value="1" style="edgeLabel;html=1;align=center;verticalAlign=middle;resizable=0;points=[];" vertex="1" connectable="0" parent="lmzBe89Hnr_I3sa1ihvS-105">
          <mxGeometry x="-0.4712" y="-2" relative="1" as="geometry">
            <mxPoint x="1" as="offset" />
          </mxGeometry>
        </mxCell>
        <mxCell id="lmzBe89Hnr_I3sa1ihvS-107" value="" style="endArrow=none;html=1;rounded=0;entryX=0.5;entryY=1;entryDx=0;entryDy=0;exitX=1;exitY=0.25;exitDx=0;exitDy=0;" edge="1" parent="1" source="lmzBe89Hnr_I3sa1ihvS-17" target="lmzBe89Hnr_I3sa1ihvS-104">
          <mxGeometry width="50" height="50" relative="1" as="geometry">
            <mxPoint x="220" y="530" as="sourcePoint" />
            <mxPoint x="270" y="480" as="targetPoint" />
          </mxGeometry>
        </mxCell>
        <mxCell id="lmzBe89Hnr_I3sa1ihvS-109" value="M" style="edgeLabel;html=1;align=center;verticalAlign=middle;resizable=0;points=[];" vertex="1" connectable="0" parent="lmzBe89Hnr_I3sa1ihvS-107">
          <mxGeometry x="0.0322" y="1" relative="1" as="geometry">
            <mxPoint as="offset" />
          </mxGeometry>
        </mxCell>
        <mxCell id="lmzBe89Hnr_I3sa1ihvS-110" value="" style="endArrow=none;html=1;rounded=0;entryX=0;entryY=0.5;entryDx=0;entryDy=0;" edge="1" parent="1" target="lmzBe89Hnr_I3sa1ihvS-70">
          <mxGeometry width="50" height="50" relative="1" as="geometry">
            <mxPoint x="220" y="1340" as="sourcePoint" />
            <mxPoint x="270" y="1290" as="targetPoint" />
          </mxGeometry>
        </mxCell>
      </root>
    </mxGraphModel>
  </diagram>
</mxfile>
